<?xml version="1.0" encoding="UTF-8"?>
<svg viewBox="0 0 265 84" xmlns="http://www.w3.org/2000/svg" xmlns:xlink="http://www.w3.org/1999/xlink" version="1.1" xml:space="preserve"> <rect width="100%" height="100%" x="0" y="0" fill="none" stroke="none"></rect> <g> <rect x="98.05999755859375" y="16.09000015258789" width="6.429999828338623" height="19.09000015258789"></rect> <polygon points="126.41999816894531,35.17999839782715 126.41999816894531,16.09000015258789 119.97999572753906,16.09000015258789 119.97999572753906,22.850000381469727 114.04000091552734,22.850000381469727 114.04000091552734,16.09000015258789 107.5999984741211,16.09000015258789 107.5999984741211,35.17999839782715 114.04000091552734,35.17999839782715 114.04000091552734,28.14000129699707 119.97999572753906,28.14000129699707 119.97999572753906,35.17999839782715 "></polygon> <path d="M150.30999877929688,25.64000022888184 c0,-5.78 -4.55,-9.98 -10.77,-9.98 s-10.77,4.2 -10.77,9.98 s4.55,9.98 10.77,9.98 S150.30999877929688,31.420000228881833 150.30999877929688,25.64000022888184 zM139.53999877929687,30.410000228881835 c-2.37,0 -4.28,-1.8 -4.28,-4.77 s1.9100000000000001,-4.77 4.28,-4.77 s4.28,1.8 4.28,4.77 S141.90999877929687,30.410000228881835 139.53999877929687,30.410000228881835 z"></path> <path d="M170.94999877929686,35.18000022888184 l-4.01,-5.890000000000001 c2.29,-1.17 3.6,-3.25 3.6,-6 c0,-4.42 -3.38,-7.2 -8.7,-7.2 h-9.19 v19.09 h6.43 v-4.8 h1.75 l3.25,4.8 H170.94999877929686 zM161.42999877929688,25.53000022888184 h-2.34 v-4.47 h2.34 c1.77,0 2.62,0.8500000000000001 2.62,2.24 S163.20999877929688,25.53000022888184 161.42999877929688,25.53000022888184 z"></path> <path d="M107.46999877929687,48.82000022888184 h-9.41 v19.09 h9.41 c6.38,0 10.77,-3.63 10.77,-9.54 S113.84999877929687,48.82000022888184 107.46999877929687,48.82000022888184 zM107.18999877929687,62.89000022888183 h-2.7 v-9.05 h2.7 c2.7,0 4.55,1.61 4.55,4.53 C111.74999877929687,61.28000022888183 109.88999877929687,62.89000022888183 107.18999877929687,62.89000022888183 z"></path> <path d="M132.68999877929687,59.120000228881835 c0,2.92 -1.12,4.01 -2.92,4.01 s-2.92,-1.09 -2.92,-4.01 V48.82000022888184 h-6.44 v10.5 c0,5.73 3.44,9.03 9.3,9.03 c5.86,0 9.3,-3.3 9.3,-9.03 v-10.5 h-6.33 V59.120000228881835 z"></path> <path d="M152.15999877929687,53.590000228881834 c1.7200000000000002,0 3.05,0.8200000000000001 4.17,2.24 l4.06,-3.63 c-1.8800000000000001,-2.45 -4.83,-3.8200000000000003 -8.56,-3.8200000000000003 c-6.13,0 -10.63,4.12 -10.63,9.98 c0,5.86 4.5,9.98 10.63,9.98 c3.74,0 6.68,-1.36 8.56,-3.8200000000000003 l-4.06,-3.63 c-1.12,1.42 -2.45,2.24 -4.17,2.24 c-2.67,0 -4.47,-1.85 -4.47,-4.77 C147.68999877929687,55.440000228881836 149.48999877929688,53.590000228881834 152.15999877929687,53.590000228881834 z"></path> <polygon points="174.6300048828125,55.579999923706055 168.69000244140625,55.579999923706055 168.69000244140625,48.82000160217285 162.25,48.82000160217285 162.25,67.89999961853027 168.69000244140625,67.89999961853027 168.69000244140625,60.8700008392334 174.6300048828125,60.8700008392334 174.6300048828125,67.89999961853027 181.0699920654297,67.89999961853027 181.0699920654297,48.82000160217285 174.6300048828125,48.82000160217285 "></polygon> <polygon points="190.50999450683594,60.53999900817871 198.5800018310547,60.53999900817871 198.5800018310547,55.91000175476074 190.50999450683594,55.91000175476074 190.50999450683594,53.670000076293945 199.6999969482422,53.670000076293945 199.6999969482422,48.82000160217285 184.17999267578125,48.82000160217285 184.17999267578125,67.89999961853027 200.0500030517578,67.89999961853027 200.0500030517578,63.05000114440918 190.50999450683594,63.05000114440918 "></polygon> <polygon points="215.0800018310547,57.49000358581543 207.8199920654297,48.82000160217285 202.52999877929688,48.82000160217285 202.52999877929688,67.89999961853027 208.8000030517578,67.89999961853027 208.8000030517578,59.23000144958496 216.05999755859375,67.89999961853027 221.35000610351562,67.89999961853027 221.35000610351562,48.82000160217285 215.0800018310547,48.82000160217285 "></polygon> <polygon points="244.05999755859375,48.82000160217285 237.05999755859375,48.82000160217285 230.77999877929688,55.739999771118164 230.77999877929688,48.82000160217285 224.45999145507812,48.82000160217285 224.45999145507812,67.89999961853027 230.77999877929688,67.89999961853027 230.77999877929688,63.19000053405762 232.22999572753906,61.579999923706055 237,67.89999961853027 244.4499969482422,67.89999961853027 236.42999267578125,57.20999717712402 "></polygon> <path d="M254.64999877929688,48.38000022888183 c-6.22,0 -10.77,4.2 -10.77,9.98 s4.55,9.98 10.77,9.98 c6.22,0 10.77,-4.2 10.77,-9.98 S260.85999877929686,48.38000022888183 254.64999877929688,48.38000022888183 zM254.64999877929688,63.13000022888184 c-2.37,0 -4.28,-1.8 -4.28,-4.77 c0,-2.9699999999999998 1.9100000000000001,-4.77 4.28,-4.77 s4.28,1.8 4.28,4.77 C258.92999877929685,61.33000022888183 257.0199987792969,63.13000022888184 254.64999877929688,63.13000022888184 z"></path> <path d="M41.999998779296874,2.2888183615066282e-7 c-23.16,0 -42,18.84 -42,42 s18.84,42 42,42 c23.16,0 42,-18.84 42,-42 S65.15999877929687,2.2888183615066282e-7 41.999998779296874,2.2888183615066282e-7 zM41.999998779296874,77.00000022888183 c-19.3,0 -35,-15.7 -35,-35 s15.7,-35 35,-35 c19.3,0 35,15.7 35,35 S61.29999877929687,77.00000022888183 41.999998779296874,77.00000022888183 z"></path> <polygon points="37.54999923706055,58.64999961853027 43.56999969482422,58.64999961853027 46.56999969482422,25.350000381469727 40.54999923706055,25.350000381469727 "></polygon> <path d="M19.369998779296875,38.11000022888184 c-0.07,2.42 -0.6300000000000001,7.3 0,9.67 c0.6300000000000001,2.38 14.51,5.3100000000000005 14.51,5.3100000000000005 v-6.66 c0,0 -9.36,-3.33 -9.52,-4.6 c-0.16000000000000003,-1.27 9.52,-4.28 9.52,-4.28 v-6.66 C33.569998779296874,30.900000228881837 19.449998779296877,35.340000228881834 19.369998779296875,38.11000022888184 z"></path> <path d="M49.999998779296874,30.900000228881837 v6.66 c0,0 9.36,3.33 9.52,4.6 c0.16000000000000003,1.27 -9.52,4.28 -9.52,4.28 v6.66 c0.32000000000000006,0 14.43,-4.44 14.51,-7.22 c0.07,-2.42 0.6300000000000001,-7.3 0,-9.67 C63.87999877929687,33.830000228881836 49.999998779296874,30.900000228881837 49.999998779296874,30.900000228881837 z"></path> </g> </svg>